<?xml version="1.0" encoding="UTF-8" standalone="no"?>
<!-- Created with Inkscape (http://www.inkscape.org/) -->

<svg
   width="160mm"
   height="140mm"
   viewBox="0 0 160 140"
   version="1.1"
   id="svg5"
   inkscapeVersion="1.1 (c68e22c387, 2021-05-23)"
   sodipodiDocname="logo.svg"
   xmlnsInkscape="http://www.inkscape.org/namespaces/inkscape"
   xmlnsSodipodi="http://sodipodi.sourceforge.net/DTD/sodipodi-0.dtd"
   xmlns="http://www.w3.org/2000/svg"
   xmlnsSvg="http://www.w3.org/2000/svg">
  <sodipodiNamedview
     id="namedview7"
     pagecolor="#505050"
     bordercolor="#eeeeee"
     borderopacity="1"
     inkscapePageshadow="0"
     inkscapePageopacity="0"
     inkscapePagecheckerboard="0"
     inkscapeDocument-units="mm"
     showgrid="false"
     showguides="true"
     inkscapeGuide-bbox="true"
     showborder="true"
     inkscapeShowpageshadow="true"
     inkscapeZoom="0.47215208"
     inkscapeCx="458.5387"
     inkscapeCy="206.50126"
     inkscapeWindow-width="1360"
     inkscapeWindow-height="715"
     inkscapeWindow-x="-8"
     inkscapeWindow-y="-8"
     inkscapeWindow-maximized="1"
     inkscapeCurrent-layer="layer1">
    <sodipodiGuide
       position="-8.9660378,219.66793"
       orientation="1,0"
       id="guide2266" />
    <sodipodiGuide
       position="176.51887,-29.233961"
       orientation="0,-1"
       id="guide2268" />
    <sodipodiGuide
       position="201.73585,12.233963"
       orientation="1,0"
       id="guide2270" />
    <sodipodiGuide
       position="68.926415,313.25094"
       orientation="0,-1"
       id="guide2272" />
  </sodipodiNamedview>
  <defs
     id="defs2" />
  <g
     inkscapeLabel="Layer 1"
     inkscapeGroupmode="layer"
     id="layer1"
     style="display:inline">
    <path
       id="path8551"
       style="display:inline;fill:none;fill-rule:evenodd;stroke:#ffffff;stroke-width:5.01026;stroke-linecap:round;stroke-linejoin:round;stroke-miterlimit:4;stroke-dasharray:none;stroke-opacity:1"
       d="m 43.26008,86.932488 v 38.592452 m 0,0 66.9347,-0.52151 m 0,0 V 86.932488 m 0,0 35.62654,-19.817744 m 0,0 -35.08674,-54.238049 m 0,0 -34.007148,18.051277 m 2e-6,0 -32.927557,-18.572796 m 0,0 -31.308164,54.759562 M 43.26008,86.932488 12.491713,67.114738 m 0,0 30.768367,58.410202 M 76.969743,104.93057 43.26008,125.52494 M 43.50239,48.926063 12.491713,67.114738 m 31.308164,-54.759562 66.934703,0.521519 m -0.29747,36.049368 0.29747,-36.049368 M 43.50239,48.926063 43.799877,12.355176 m 66.637233,36.570887 35.38421,18.188681 m -35.62654,57.888686 35.62654,-57.888686 m -68.851577,37.815826 33.225037,20.07286 m 0.24233,-76.077367 H 43.502391 M 76.969744,104.93057 43.502391,48.926063 M 76.969744,104.93057 110.43711,48.926063 M 110.19478,86.932488 76.727435,30.927972 M 43.26008,86.932488 76.727435,30.927972 M 43.26008,86.932488 h 66.9347" />
  </g>
</svg>
