<svg width="770" height="312" viewBox="0 0 770 312" fill="none" xmlns="http://www.w3.org/2000/svg">
<g clip-path="url(#clip0_21_16)">
<rect width="770" height="312" fill="#573391"/>
<path d="M95 75L183 110.684V235.577L114.556 199.893L95 75Z" fill="#402773"/>
<path d="M271 75L183 110.684V235.577L251.444 199.893L271 75Z" fill="#351970"/>
<path d="M95 75L183 110.684L271 75L251.444 199.893L183 235.577L114.556 199.893L95 75Z" stroke="#B1A4CC" stroke-width="5" stroke-linecap="round" stroke-linejoin="round"/>
<path d="M234.669 129.776L215.643 200.423H195.478L182.81 154.4L170.474 200.423H150.31L131.284 129.776H150.31L161.175 178.408L174.175 129.776H192.347L204.73 178.408L216.118 129.776H234.669Z" fill="#663BBF"/>
<path d="M234.669 129.776L236.6 130.296C236.762 129.695 236.635 129.053 236.256 128.559C235.878 128.065 235.291 127.776 234.669 127.776V129.776ZM215.643 200.423V202.423C216.547 202.423 217.339 201.817 217.574 200.943L215.643 200.423ZM195.478 200.423L193.55 200.954C193.789 201.822 194.578 202.423 195.478 202.423V200.423ZM182.81 154.4L184.738 153.87C184.499 152.999 183.706 152.397 182.803 152.4C181.901 152.403 181.112 153.011 180.878 153.883L182.81 154.4ZM170.474 200.423V202.423C171.379 202.423 172.172 201.815 172.406 200.941L170.474 200.423ZM150.31 200.423L148.378 200.943C148.613 201.817 149.405 202.423 150.31 202.423V200.423ZM131.284 129.776V127.776C130.661 127.776 130.075 128.065 129.696 128.559C129.318 129.053 129.191 129.695 129.352 130.296L131.284 129.776ZM150.31 129.776L152.261 129.34C152.057 128.426 151.246 127.776 150.31 127.776V129.776ZM161.175 178.408L159.223 178.844C159.424 179.743 160.212 180.389 161.133 180.408C162.054 180.427 162.869 179.815 163.107 178.925L161.175 178.408ZM174.175 129.776V127.776C173.269 127.776 172.477 128.384 172.243 129.259L174.175 129.776ZM192.347 129.776L194.285 129.282C194.059 128.396 193.261 127.776 192.347 127.776V129.776ZM204.73 178.408L202.792 178.902C203.02 179.795 203.828 180.417 204.75 180.408C205.671 180.399 206.468 179.762 206.678 178.864L204.73 178.408ZM216.118 129.776V127.776C215.189 127.776 214.382 128.415 214.17 129.32L216.118 129.776ZM232.738 129.256L213.712 199.903L217.574 200.943L236.6 130.296L232.738 129.256ZM215.643 198.423H195.478V202.423H215.643V198.423ZM197.407 199.893L184.738 153.87L180.882 154.931L193.55 200.954L197.407 199.893ZM180.878 153.883L168.542 199.906L172.406 200.941L184.742 154.918L180.878 153.883ZM170.474 198.423H150.31V202.423H170.474V198.423ZM152.241 199.903L133.215 129.256L129.352 130.296L148.378 200.943L152.241 199.903ZM131.284 131.776H150.31V127.776H131.284V131.776ZM148.358 130.212L159.223 178.844L163.127 177.972L152.261 129.34L148.358 130.212ZM163.107 178.925L176.107 130.292L172.243 129.259L159.243 177.892L163.107 178.925ZM174.175 131.776H192.347V127.776H174.175V131.776ZM190.409 130.269L202.792 178.902L206.669 177.915L194.285 129.282L190.409 130.269ZM206.678 178.864L218.065 130.232L214.17 129.32L202.783 177.952L206.678 178.864ZM216.118 131.776H234.669V127.776H216.118V131.776Z" fill="#B1A4CC"/>
<path d="M286.752 -22.5L798 -35V328.5H-12L138 261L253.5 201L286.752 -22.5Z" fill="#B1A4CC"/>
<path d="M125.5 -13H492L183.5 109L-9 32.5V-13H125.5Z" fill="#725E9A"/>
<path d="M305.75 179.469L319.344 119.75H327.172L330.266 127.156L315.781 188H307.203L305.75 179.469ZM300.453 119.75L311.844 179.75L309.875 188H300.125L285.312 119.75H300.453ZM339.969 179.422L351.219 119.75H366.312L351.5 188H341.844L339.969 179.422ZM332.281 119.75L346.062 179.797L344.469 188H335.938L321.219 127.109L324.453 119.75H332.281ZM419.75 176.188V188H383.422V176.188H419.75ZM388.625 119.75V188H373.344V119.75H388.625ZM415.062 147.219V158.656H383.422V147.219H415.062ZM419.797 119.75V131.609H383.422V119.75H419.797ZM452.469 172.859L467.656 119.75H484.672L461.281 188H450.172L452.469 172.859ZM438.641 119.75L453.781 172.859L456.172 188H444.922L421.672 119.75H438.641ZM536.75 176.188V188H500.422V176.188H536.75ZM505.625 119.75V188H490.344V119.75H505.625ZM532.062 147.219V158.656H500.422V147.219H532.062ZM536.797 119.75V131.609H500.422V119.75H536.797ZM544.25 119.75H570.453C575.672 119.75 580.188 120.531 584 122.094C587.844 123.656 590.797 125.969 592.859 129.031C594.922 132.094 595.953 135.875 595.953 140.375C595.953 144.125 595.344 147.312 594.125 149.938C592.906 152.562 591.188 154.734 588.969 156.453C586.781 158.172 584.219 159.562 581.281 160.625L576.312 163.344H554L553.906 151.484H570.5C572.781 151.484 574.672 151.078 576.172 150.266C577.672 149.453 578.797 148.312 579.547 146.844C580.328 145.344 580.719 143.594 580.719 141.594C580.719 139.531 580.328 137.75 579.547 136.25C578.766 134.75 577.609 133.609 576.078 132.828C574.578 132.016 572.703 131.609 570.453 131.609H559.531V188H544.25V119.75ZM582.031 188L566.703 157.672L582.828 157.625L598.391 187.297V188H582.031Z" fill="#573391"/>
<path d="M181.5 237.5L429.013 364.75L-29.0134 337.75L181.5 237.5Z" fill="#725E9A"/>
</g>
<defs>
<clipPath id="clip0_21_16">
<rect width="770" height="312" fill="white"/>
</clipPath>
</defs>
</svg>
