<svg width="770" height="312" viewBox="0 0 770 312" fill="none" xmlns="http://www.w3.org/2000/svg">
<g clip-path="url(#clip0_19_23)">
<rect width="770" height="312" fill="#573391"/>
<path d="M93.1519 76L182 111.333V235L112.896 199.667L93.1519 76Z" fill="#402773" stroke="#B1A4CC" stroke-width="6" stroke-linecap="round" stroke-linejoin="round"/>
<path d="M270.848 76L182 111.333V235L251.104 199.667L270.848 76Z" fill="#351970" stroke="#B1A4CC" stroke-width="6" stroke-linecap="round" stroke-linejoin="round"/>
<path d="M155.193 195.906L139.812 131.482H153.128L162.84 175.735L174.617 131.482H190.086L201.38 176.482L211.268 131.482H224.363L208.719 195.906H194.92L182.088 147.741L169.3 195.906H155.193Z" fill="#663BBF"/>
<path d="M155.193 195.906L154.221 196.138C154.328 196.588 154.731 196.906 155.193 196.906V195.906ZM139.812 131.482V130.482C139.506 130.482 139.217 130.622 139.028 130.862C138.838 131.102 138.769 131.416 138.84 131.714L139.812 131.482ZM153.128 131.482L154.105 131.267C154.004 130.809 153.598 130.482 153.128 130.482V131.482ZM162.84 175.735L161.863 175.949C161.962 176.4 162.356 176.724 162.818 176.734C163.279 176.745 163.688 176.438 163.806 175.992L162.84 175.735ZM174.617 131.482V130.482C174.164 130.482 173.767 130.787 173.651 131.225L174.617 131.482ZM190.086 131.482L191.056 131.238C190.944 130.794 190.544 130.482 190.086 130.482V131.482ZM201.38 176.482L200.41 176.725C200.523 177.175 200.931 177.488 201.395 177.482C201.859 177.475 202.257 177.15 202.357 176.696L201.38 176.482ZM211.268 131.482V130.482C210.798 130.482 210.392 130.808 210.291 131.267L211.268 131.482ZM224.363 131.482L225.335 131.718C225.407 131.42 225.339 131.105 225.149 130.864C224.96 130.622 224.67 130.482 224.363 130.482V131.482ZM208.719 195.906V196.906C209.18 196.906 209.582 196.59 209.691 196.141L208.719 195.906ZM194.92 195.906L193.954 196.163C194.07 196.601 194.467 196.906 194.92 196.906V195.906ZM182.088 147.741L183.054 147.484C182.937 147.046 182.541 146.741 182.087 146.741C181.634 146.742 181.238 147.047 181.121 147.485L182.088 147.741ZM169.3 195.906V196.906C169.753 196.906 170.15 196.6 170.266 196.162L169.3 195.906ZM156.166 195.673L140.785 131.249L138.84 131.714L154.221 196.138L156.166 195.673ZM139.812 132.482H153.128V130.482H139.812V132.482ZM152.151 131.696L161.863 175.949L163.817 175.52L154.105 131.267L152.151 131.696ZM163.806 175.992L175.584 131.739L173.651 131.225L161.873 175.477L163.806 175.992ZM174.617 132.482H190.086V130.482H174.617V132.482ZM189.116 131.725L200.41 176.725L202.35 176.238L191.056 131.238L189.116 131.725ZM202.357 176.696L212.244 131.696L210.291 131.267L200.403 176.267L202.357 176.696ZM211.268 132.482H224.363V130.482H211.268V132.482ZM223.392 131.246L207.747 195.67L209.691 196.141L225.335 131.718L223.392 131.246ZM208.719 194.906H194.92V196.906H208.719V194.906ZM195.886 195.648L183.054 147.484L181.122 147.999L193.954 196.163L195.886 195.648ZM181.121 147.485L168.333 195.649L170.266 196.162L183.054 147.998L181.121 147.485ZM169.3 194.906H155.193V196.906H169.3V194.906Z" fill="#B1A4CC"/>
<path d="M286.752 -22.5L798 -35V328.5H-12L138 261L253.5 201L286.752 -22.5Z" fill="#B1A4CC"/>
<path d="M130.5 -92L492 -13L182.5 107L-42.8176 21.5L130.5 -92Z" fill="#725E9A"/>
<path d="M305.75 179.469L319.344 119.75H327.172L330.266 127.156L315.781 188H307.203L305.75 179.469ZM300.453 119.75L311.844 179.75L309.875 188H300.125L285.312 119.75H300.453ZM339.969 179.422L351.219 119.75H366.312L351.5 188H341.844L339.969 179.422ZM332.281 119.75L346.062 179.797L344.469 188H335.938L321.219 127.109L324.453 119.75H332.281ZM419.75 176.188V188H383.422V176.188H419.75ZM388.625 119.75V188H373.344V119.75H388.625ZM415.062 147.219V158.656H383.422V147.219H415.062ZM419.797 119.75V131.609H383.422V119.75H419.797ZM452.469 172.859L467.656 119.75H484.672L461.281 188H450.172L452.469 172.859ZM438.641 119.75L453.781 172.859L456.172 188H444.922L421.672 119.75H438.641ZM536.75 176.188V188H500.422V176.188H536.75ZM505.625 119.75V188H490.344V119.75H505.625ZM532.062 147.219V158.656H500.422V147.219H532.062ZM536.797 119.75V131.609H500.422V119.75H536.797ZM544.25 119.75H570.453C575.672 119.75 580.188 120.531 584 122.094C587.844 123.656 590.797 125.969 592.859 129.031C594.922 132.094 595.953 135.875 595.953 140.375C595.953 144.125 595.344 147.312 594.125 149.938C592.906 152.562 591.188 154.734 588.969 156.453C586.781 158.172 584.219 159.562 581.281 160.625L576.312 163.344H554L553.906 151.484H570.5C572.781 151.484 574.672 151.078 576.172 150.266C577.672 149.453 578.797 148.312 579.547 146.844C580.328 145.344 580.719 143.594 580.719 141.594C580.719 139.531 580.328 137.75 579.547 136.25C578.766 134.75 577.609 133.609 576.078 132.828C574.578 132.016 572.703 131.609 570.453 131.609H559.531V188H544.25V119.75ZM582.031 188L566.703 157.672L582.828 157.625L598.391 187.297V188H582.031Z" fill="#573391"/>
<path d="M181.5 238L431.013 363.75L-29.0134 337.75L181.5 238Z" fill="#725E9A"/>
</g>
<defs>
<clipPath id="clip0_19_23">
<rect width="770" height="312" fill="white"/>
</clipPath>
</defs>
</svg>
