<svg width="300" height="300" viewBox="0 0 300 300" fill="none" xmlns="http://www.w3.org/2000/svg">
<path d="M25 25L150 80.5555V275L52.7778 219.444L25 25Z" fill="#402773"/>
<path d="M275 25L150 80.5555V275L247.222 219.444L275 25Z" fill="#351970"/>
<path d="M25 25L150 80.5555L275 25L247.222 219.444L150 275L52.7778 219.444L25 25Z" stroke="#B1A4CC" stroke-width="5" stroke-linecap="round" stroke-linejoin="round"/>
<path d="M220.812 116.179L194.737 213H167.101L149.74 149.926L132.834 213H105.198L79.1234 116.179H105.198L120.089 182.829L137.905 116.179H162.81L179.781 182.829L195.387 116.179H220.812Z" fill="#663BBF"/>
<path d="M220.812 116.179L222.743 116.699C222.905 116.098 222.778 115.456 222.399 114.962C222.021 114.468 221.434 114.179 220.812 114.179V116.179ZM194.737 213V215C195.641 215 196.433 214.393 196.668 213.52L194.737 213ZM167.101 213L165.173 213.531C165.412 214.399 166.201 215 167.101 215V213ZM149.74 149.926L151.668 149.396C151.429 148.525 150.636 147.923 149.733 147.926C148.831 147.929 148.042 148.537 147.808 149.409L149.74 149.926ZM132.834 213V215C133.739 215 134.531 214.392 134.765 213.518L132.834 213ZM105.198 213L103.267 213.52C103.502 214.393 104.294 215 105.198 215V213ZM79.1234 116.179V114.179C78.5012 114.179 77.9144 114.468 77.5359 114.962C77.1574 115.456 77.0304 116.098 77.1922 116.699L79.1234 116.179ZM105.198 116.179L107.15 115.743C106.946 114.829 106.135 114.179 105.198 114.179V116.179ZM120.089 182.829L118.137 183.265C118.338 184.164 119.126 184.809 120.047 184.828C120.968 184.847 121.783 184.235 122.021 183.345L120.089 182.829ZM137.905 116.179V114.179C137 114.179 136.207 114.787 135.973 115.662L137.905 116.179ZM162.81 116.179L164.748 115.685C164.522 114.799 163.724 114.179 162.81 114.179V116.179ZM179.781 182.829L177.843 183.322C178.07 184.215 178.879 184.837 179.801 184.829C180.722 184.82 181.518 184.182 181.729 183.285L179.781 182.829ZM195.387 116.179V114.179C194.458 114.179 193.651 114.818 193.44 115.723L195.387 116.179ZM218.88 115.659L192.806 212.48L196.668 213.52L222.743 116.699L218.88 115.659ZM194.737 211H167.101V215H194.737V211ZM169.03 212.469L151.668 149.396L147.812 150.457L165.173 213.531L169.03 212.469ZM147.808 149.409L130.902 212.482L134.765 213.518L151.672 150.444L147.808 149.409ZM132.834 211H105.198V215H132.834V211ZM107.129 212.48L81.0546 115.659L77.1922 116.699L103.267 213.52L107.129 212.48ZM79.1234 118.179H105.198V114.179H79.1234V118.179ZM103.246 116.615L118.137 183.265L122.041 182.393L107.15 115.743L103.246 116.615ZM122.021 183.345L139.838 116.695L135.973 115.662L118.157 182.312L122.021 183.345ZM137.905 118.179H162.81V114.179H137.905V118.179ZM160.872 116.672L177.843 183.322L181.719 182.335L164.748 115.685L160.872 116.672ZM181.729 183.285L197.334 116.635L193.44 115.723L177.834 182.373L181.729 183.285ZM195.387 118.179H220.812V114.179H195.387V118.179Z" fill="#B1A4CC"/>
</svg>
