<svg width="770" height="312" viewBox="0 0 770 312" fill="none" xmlns="http://www.w3.org/2000/svg">
<g clip-path="url(#clip0_34_19)">
<rect width="770" height="312" fill="#573391"/>
<path d="M81 106L181 56L281 106L181 156L81 106Z" fill="#402773" stroke="#B1A4CC" stroke-width="2"/>
<path d="M81 106V206L181 256V156L81 106Z" fill="#381C75" stroke="#B1A4CC" stroke-width="2"/>
<path d="M181 156V256L281 206V106L181 156Z" fill="#663BBF" stroke="#B1A4CC" stroke-width="2"/>
<path d="M81 206V106L181 56L281 106V206L181 256L81 206Z" stroke="#B1A4CC" stroke-width="6" stroke-linecap="round" stroke-linejoin="round"/>
<path d="M340.5 -22.5H794V326H306.5H284V207V104.5L180 53.2L340.5 -22.5Z" fill="#B1A4CC"/>
<path d="M725 -16.5H779V323.5H54.5L725 -16.5Z" fill="#6A5495"/>
<path d="M347.75 179.469L361.344 119.75H369.172L372.266 127.156L357.781 188H349.203L347.75 179.469ZM342.453 119.75L353.844 179.75L351.875 188H342.125L327.312 119.75H342.453ZM381.969 179.422L393.219 119.75H408.312L393.5 188H383.844L381.969 179.422ZM374.281 119.75L388.062 179.797L386.469 188H377.938L363.219 127.109L366.453 119.75H374.281ZM470.39 176.188V188H434.062V176.188H470.39ZM439.265 119.75V188H423.984V119.75H439.265ZM465.702 147.219V158.656H434.062V147.219H465.702ZM470.437 119.75V131.609H434.062V119.75H470.437ZM511.749 172.859L526.936 119.75H543.952L520.561 188H509.452L511.749 172.859ZM497.921 119.75L513.061 172.859L515.452 188H504.202L480.952 119.75H497.921ZM604.67 176.188V188H568.342V176.188H604.67ZM573.545 119.75V188H558.264V119.75H573.545ZM599.982 147.219V158.656H568.342V147.219H599.982ZM604.717 119.75V131.609H568.342V119.75H604.717ZM620.81 119.75H647.013C652.232 119.75 656.747 120.531 660.56 122.094C664.404 123.656 667.357 125.969 669.419 129.031C671.482 132.094 672.513 135.875 672.513 140.375C672.513 144.125 671.904 147.312 670.685 149.938C669.466 152.562 667.747 154.734 665.529 156.453C663.341 158.172 660.779 159.562 657.841 160.625L652.872 163.344H630.56L630.466 151.484H647.06C649.341 151.484 651.232 151.078 652.732 150.266C654.232 149.453 655.357 148.312 656.107 146.844C656.888 145.344 657.279 143.594 657.279 141.594C657.279 139.531 656.888 137.75 656.107 136.25C655.326 134.75 654.169 133.609 652.638 132.828C651.138 132.016 649.263 131.609 647.013 131.609H636.091V188H620.81V119.75ZM658.591 188L643.263 157.672L659.388 157.625L674.951 187.297V188H658.591Z" fill="#573391"/>
<path d="M347.75 179.469L344.825 178.803L344.692 179.384L344.793 179.972L347.75 179.469ZM361.344 119.75V116.75H358.95L358.419 119.084L361.344 119.75ZM369.172 119.75L371.94 118.594L371.17 116.75H369.172V119.75ZM372.266 127.156L375.184 127.851L375.41 126.901L375.034 126L372.266 127.156ZM357.781 188V191H360.151L360.7 188.695L357.781 188ZM349.203 188L346.246 188.504L346.671 191H349.203V188ZM342.453 119.75L345.4 119.19L344.937 116.75H342.453V119.75ZM353.844 179.75L356.762 180.446L356.911 179.822L356.791 179.19L353.844 179.75ZM351.875 188V191H354.243L354.793 188.696L351.875 188ZM342.125 188L339.193 188.636L339.706 191H342.125V188ZM327.312 119.75V116.75H323.592L324.381 120.386L327.312 119.75ZM381.969 179.422L379.021 178.866L378.908 179.466L379.038 180.062L381.969 179.422ZM393.219 119.75V116.75H390.731L390.271 119.194L393.219 119.75ZM408.312 119.75L411.244 120.386L412.033 116.75H408.312V119.75ZM393.5 188V191H395.919L396.432 188.636L393.5 188ZM383.844 188L380.913 188.641L381.429 191H383.844V188ZM374.281 119.75L377.205 119.079L376.671 116.75H374.281V119.75ZM388.062 179.797L391.007 180.369L391.129 179.745L390.986 179.126L388.062 179.797ZM386.469 188V191H388.942L389.414 188.572L386.469 188ZM377.938 188L375.021 188.705L375.576 191H377.938V188ZM363.219 127.109L360.472 125.902L360.065 126.83L360.303 127.814L363.219 127.109ZM366.453 119.75V116.75H364.495L363.707 118.543L366.453 119.75ZM350.675 180.135L364.269 120.416L358.419 119.084L344.825 178.803L350.675 180.135ZM361.344 122.75H369.172V116.75H361.344V122.75ZM366.404 120.906L369.497 128.313L375.034 126L371.94 118.594L366.404 120.906ZM369.347 126.461L354.863 187.305L360.7 188.695L375.184 127.851L369.347 126.461ZM357.781 185H349.203V191H357.781V185ZM352.161 187.496L350.707 178.965L344.793 179.972L346.246 188.504L352.161 187.496ZM339.506 120.31L350.896 180.31L356.791 179.19L345.4 119.19L339.506 120.31ZM350.926 179.054L348.957 187.304L354.793 188.696L356.762 180.446L350.926 179.054ZM351.875 185H342.125V191H351.875V185ZM345.057 187.364L330.244 119.114L324.381 120.386L339.193 188.636L345.057 187.364ZM327.312 122.75H342.453V116.75H327.312V122.75ZM384.917 179.978L396.167 120.306L390.271 119.194L379.021 178.866L384.917 179.978ZM393.219 122.75H408.312V116.75H393.219V122.75ZM405.381 119.114L390.568 187.364L396.432 188.636L411.244 120.386L405.381 119.114ZM393.5 185H383.844V191H393.5V185ZM386.775 187.359L384.9 178.781L379.038 180.062L380.913 188.641L386.775 187.359ZM371.357 120.421L385.139 180.468L390.986 179.126L377.205 119.079L371.357 120.421ZM385.118 179.225L383.524 187.428L389.414 188.572L391.007 180.369L385.118 179.225ZM386.469 185H377.938V191H386.469V185ZM380.854 187.295L366.135 126.405L360.303 127.814L375.021 188.705L380.854 187.295ZM365.965 128.316L369.2 120.957L363.707 118.543L360.472 125.902L365.965 128.316ZM366.453 122.75H374.281V116.75H366.453V122.75ZM470.39 176.188H473.39V173.188H470.39V176.188ZM470.39 188V191H473.39V188H470.39ZM434.062 188H431.062V191H434.062V188ZM434.062 176.188V173.188H431.062V176.188H434.062ZM439.265 119.75H442.265V116.75H439.265V119.75ZM439.265 188V191H442.265V188H439.265ZM423.984 188H420.984V191H423.984V188ZM423.984 119.75V116.75H420.984V119.75H423.984ZM465.702 147.219H468.702V144.219H465.702V147.219ZM465.702 158.656V161.656H468.702V158.656H465.702ZM434.062 158.656H431.062V161.656H434.062V158.656ZM434.062 147.219V144.219H431.062V147.219H434.062ZM470.437 119.75H473.437V116.75H470.437V119.75ZM470.437 131.609V134.609H473.437V131.609H470.437ZM434.062 131.609H431.062V134.609H434.062V131.609ZM434.062 119.75V116.75H431.062V119.75H434.062ZM467.39 176.188V188H473.39V176.188H467.39ZM470.39 185H434.062V191H470.39V185ZM437.062 188V176.188H431.062V188H437.062ZM434.062 179.188H470.39V173.188H434.062V179.188ZM436.265 119.75V188H442.265V119.75H436.265ZM439.265 185H423.984V191H439.265V185ZM426.984 188V119.75H420.984V188H426.984ZM423.984 122.75H439.265V116.75H423.984V122.75ZM462.702 147.219V158.656H468.702V147.219H462.702ZM465.702 155.656H434.062V161.656H465.702V155.656ZM437.062 158.656V147.219H431.062V158.656H437.062ZM434.062 150.219H465.702V144.219H434.062V150.219ZM467.437 119.75V131.609H473.437V119.75H467.437ZM470.437 128.609H434.062V134.609H470.437V128.609ZM437.062 131.609V119.75H431.062V131.609H437.062ZM434.062 122.75H470.437V116.75H434.062V122.75ZM511.749 172.859L508.864 172.035L508.812 172.219L508.783 172.409L511.749 172.859ZM526.936 119.75V116.75H524.674L524.052 118.925L526.936 119.75ZM543.952 119.75L546.79 120.723L548.151 116.75H543.952V119.75ZM520.561 188V191H522.704L523.399 188.973L520.561 188ZM509.452 188L506.486 187.55L505.962 191H509.452V188ZM497.921 119.75L500.806 118.928L500.185 116.75H497.921V119.75ZM513.061 172.859L516.025 172.391L515.996 172.212L515.946 172.037L513.061 172.859ZM515.452 188V191H518.963L518.415 187.532L515.452 188ZM504.202 188L501.362 188.967L502.055 191H504.202V188ZM480.952 119.75V116.75H476.761L478.112 120.717L480.952 119.75ZM514.633 173.684L529.821 120.575L524.052 118.925L508.864 172.035L514.633 173.684ZM526.936 122.75H543.952V116.75H526.936V122.75ZM541.114 118.777L517.723 187.027L523.399 188.973L546.79 120.723L541.114 118.777ZM520.561 185H509.452V191H520.561V185ZM512.418 188.45L514.715 173.309L508.783 172.409L506.486 187.55L512.418 188.45ZM495.036 120.572L510.176 173.682L515.946 172.037L500.806 118.928L495.036 120.572ZM510.098 173.327L512.489 188.468L518.415 187.532L516.025 172.391L510.098 173.327ZM515.452 185H504.202V191H515.452V185ZM507.042 187.033L483.792 118.783L478.112 120.717L501.362 188.967L507.042 187.033ZM480.952 122.75H497.921V116.75H480.952V122.75ZM604.67 176.188H607.67V173.188H604.67V176.188ZM604.67 188V191H607.67V188H604.67ZM568.342 188H565.342V191H568.342V188ZM568.342 176.188V173.188H565.342V176.188H568.342ZM573.545 119.75H576.545V116.75H573.545V119.75ZM573.545 188V191H576.545V188H573.545ZM558.264 188H555.264V191H558.264V188ZM558.264 119.75V116.75H555.264V119.75H558.264ZM599.982 147.219H602.982V144.219H599.982V147.219ZM599.982 158.656V161.656H602.982V158.656H599.982ZM568.342 158.656H565.342V161.656H568.342V158.656ZM568.342 147.219V144.219H565.342V147.219H568.342ZM604.717 119.75H607.717V116.75H604.717V119.75ZM604.717 131.609V134.609H607.717V131.609H604.717ZM568.342 131.609H565.342V134.609H568.342V131.609ZM568.342 119.75V116.75H565.342V119.75H568.342ZM601.67 176.188V188H607.67V176.188H601.67ZM604.67 185H568.342V191H604.67V185ZM571.342 188V176.188H565.342V188H571.342ZM568.342 179.188H604.67V173.188H568.342V179.188ZM570.545 119.75V188H576.545V119.75H570.545ZM573.545 185H558.264V191H573.545V185ZM561.264 188V119.75H555.264V188H561.264ZM558.264 122.75H573.545V116.75H558.264V122.75ZM596.982 147.219V158.656H602.982V147.219H596.982ZM599.982 155.656H568.342V161.656H599.982V155.656ZM571.342 158.656V147.219H565.342V158.656H571.342ZM568.342 150.219H599.982V144.219H568.342V150.219ZM601.717 119.75V131.609H607.717V119.75H601.717ZM604.717 128.609H568.342V134.609H604.717V128.609ZM571.342 131.609V119.75H565.342V131.609H571.342ZM568.342 122.75H604.717V116.75H568.342V122.75ZM620.81 119.75V116.75H617.81V119.75H620.81ZM660.56 122.094L659.422 124.87L659.43 124.873L660.56 122.094ZM665.529 156.453L663.692 154.081L663.683 154.088L663.675 154.094L665.529 156.453ZM657.841 160.625L656.821 157.804L656.604 157.882L656.401 157.993L657.841 160.625ZM652.872 163.344V166.344H653.64L654.313 165.976L652.872 163.344ZM630.56 163.344L627.56 163.367L627.584 166.344H630.56V163.344ZM630.466 151.484V148.484H627.442L627.466 151.508L630.466 151.484ZM656.107 146.844L653.446 145.458L653.441 145.469L653.435 145.479L656.107 146.844ZM652.638 132.828L651.209 135.466L651.242 135.484L651.275 135.5L652.638 132.828ZM636.091 131.609V128.609H633.091V131.609H636.091ZM636.091 188V191H639.091V188H636.091ZM620.81 188H617.81V191H620.81V188ZM658.591 188L655.914 189.353L656.746 191H658.591V188ZM643.263 157.672L643.254 154.672L638.393 154.686L640.586 159.025L643.263 157.672ZM659.388 157.625L662.045 156.232L661.199 154.62L659.379 154.625L659.388 157.625ZM674.951 187.297H677.951V186.558L677.607 185.903L674.951 187.297ZM674.951 188V191H677.951V188H674.951ZM620.81 122.75H647.013V116.75H620.81V122.75ZM647.013 122.75C651.942 122.75 656.053 123.489 659.422 124.87L661.698 119.318C657.442 117.574 652.522 116.75 647.013 116.75V122.75ZM659.43 124.873C662.792 126.24 665.242 128.199 666.931 130.707L671.908 127.355C669.472 123.738 666.015 121.073 661.69 119.315L659.43 124.873ZM666.931 130.707C668.593 133.175 669.513 136.34 669.513 140.375H675.513C675.513 135.41 674.371 131.012 671.908 127.355L666.931 130.707ZM669.513 140.375C669.513 143.813 668.953 146.544 667.964 148.674L673.406 151.201C674.854 148.081 675.513 144.437 675.513 140.375H669.513ZM667.964 148.674C666.941 150.878 665.519 152.666 663.692 154.081L667.366 158.825C669.976 156.803 671.992 154.247 673.406 151.201L667.964 148.674ZM663.675 154.094C661.768 155.593 659.494 156.837 656.821 157.804L658.862 163.446C662.063 162.288 664.915 160.751 667.382 158.812L663.675 154.094ZM656.401 157.993L651.432 160.712L654.313 165.976L659.281 163.257L656.401 157.993ZM652.872 160.344H630.56V166.344H652.872V160.344ZM633.56 163.32L633.466 151.461L627.466 151.508L627.56 163.367L633.56 163.32ZM630.466 154.484H647.06V148.484H630.466V154.484ZM647.06 154.484C649.679 154.484 652.099 154.02 654.161 152.904L651.303 147.628C650.365 148.136 649.004 148.484 647.06 148.484V154.484ZM654.161 152.904C656.175 151.813 657.743 150.237 658.779 148.208L653.435 145.479C652.971 146.388 652.289 147.094 651.303 147.628L654.161 152.904ZM658.768 148.23C659.809 146.23 660.279 143.988 660.279 141.594H654.279C654.279 143.199 653.967 144.458 653.446 145.458L658.768 148.23ZM660.279 141.594C660.279 139.153 659.816 136.876 658.768 134.864L653.446 137.636C653.961 138.624 654.279 139.909 654.279 141.594H660.279ZM658.768 134.864C657.693 132.801 656.079 131.216 654.002 130.156L651.275 135.5C652.26 136.003 652.958 136.699 653.446 137.636L658.768 134.864ZM654.067 130.19C652.011 129.076 649.608 128.609 647.013 128.609V134.609C648.918 134.609 650.266 134.955 651.209 135.466L654.067 130.19ZM647.013 128.609H636.091V134.609H647.013V128.609ZM633.091 131.609V188H639.091V131.609H633.091ZM636.091 185H620.81V191H636.091V185ZM623.81 188V119.75H617.81V188H623.81ZM661.269 186.647L645.941 156.319L640.586 159.025L655.914 189.353L661.269 186.647ZM643.272 160.672L659.397 160.625L659.379 154.625L643.254 154.672L643.272 160.672ZM656.731 159.018L672.294 188.69L677.607 185.903L662.045 156.232L656.731 159.018ZM671.951 187.297V188H677.951V187.297H671.951ZM674.951 185H658.591V191H674.951V185Z" fill="white"/>
<path d="M303 -4.5L179.5 53.5L71 -4.5H303Z" fill="#725E9A"/>
</g>
<defs>
<clipPath id="clip0_34_19">
<rect width="770" height="312" fill="white"/>
</clipPath>
</defs>
</svg>
